<svg width="58" height="58" viewBox="0 0 58 58" fill="none" xmlns="http://www.w3.org/2000/svg">
<g filter="url(#filter0_d_0_985)">
<circle cx="29" cy="30" r="22" fill="white"/>
</g>
<path d="M31.6667 33.3333V34.6667H22.3334V33.3333C22.3334 33.3333 22.3334 30.6667 27 30.6667C31.6667 30.6667 31.6667 33.3333 31.6667 33.3333ZM29.3334 27C29.3334 26.5385 29.1965 26.0874 28.9401 25.7037C28.6837 25.3199 28.3193 25.0209 27.893 24.8443C27.4666 24.6677 26.9975 24.6215 26.5448 24.7115C26.0922 24.8015 25.6764 25.0238 25.3501 25.3501C25.0238 25.6764 24.8016 26.0922 24.7115 26.5448C24.6215 26.9974 24.6677 27.4666 24.8443 27.8929C25.0209 28.3193 25.32 28.6837 25.7037 28.9401C26.0874 29.1965 26.5386 29.3333 27 29.3333C27.6189 29.3333 28.2124 29.0875 28.65 28.6499C29.0875 28.2123 29.3334 27.6188 29.3334 27ZM31.6267 30.6667C32.0365 30.9838 32.3719 31.387 32.6092 31.8477C32.8464 32.3084 32.9798 32.8155 33 33.3333V34.6667H35.6667V33.3333C35.6667 33.3333 35.6667 30.9133 31.6267 30.6667ZM31 24.6667C30.5412 24.6641 30.0924 24.8013 29.7134 25.06C30.1183 25.6258 30.3361 26.3042 30.3361 27C30.3361 27.6958 30.1183 28.3742 29.7134 28.94C30.0924 29.1987 30.5412 29.3359 31 29.3333C31.6189 29.3333 32.2124 29.0875 32.65 28.6499C33.0875 28.2123 33.3334 27.6188 33.3334 27C33.3334 26.3812 33.0875 25.7877 32.65 25.3501C32.2124 24.9125 31.6189 24.6667 31 24.6667Z" fill="#59B17A"/>
<defs>
<filter id="filter0_d_0_985" x="0" y="0" width="58" height="58" filterUnits="userSpaceOnUse" color-interpolation-filters="sRGB">
<feFlood flood-opacity="0" result="BackgroundImageFix"/>
<feColorMatrix in="SourceAlpha" type="matrix" values="0 0 0 0 0 0 0 0 0 0 0 0 0 0 0 0 0 0 127 0" result="hardAlpha"/>
<feOffset dy="-1"/>
<feGaussianBlur stdDeviation="3.5"/>
<feComposite in2="hardAlpha" operator="out"/>
<feColorMatrix type="matrix" values="0 0 0 0 0.279167 0 0 0 0 0.279167 0 0 0 0 0.279167 0 0 0 0.05 0"/>
<feBlend mode="normal" in2="BackgroundImageFix" result="effect1_dropShadow_0_985"/>
<feBlend mode="normal" in="SourceGraphic" in2="effect1_dropShadow_0_985" result="shape"/>
</filter>
</defs>
</svg>
