<svg width="58" height="58" viewBox="0 0 58 58" fill="none" xmlns="http://www.w3.org/2000/svg">
<g filter="url(#filter0_d_0_299)">
<circle cx="29" cy="30" r="22" fill="white"/>
</g>
<path d="M25.6667 34C24.9334 34 24.3401 34.6 24.3401 35.3334C24.3401 36.0667 24.9334 36.6667 25.6667 36.6667C26.4001 36.6667 27.0001 36.0667 27.0001 35.3334C27.0001 34.6 26.4001 34 25.6667 34ZM21.6667 24C21.6667 24.3667 21.9667 24.6667 22.3334 24.6667H23.0001L25.4001 29.7267L24.5001 31.3534C24.0134 32.2467 24.6534 33.3334 25.6667 33.3334H33.0001C33.3667 33.3334 33.6667 33.0334 33.6667 32.6667C33.6667 32.3 33.3667 32 33.0001 32H25.6667L26.4001 30.6667H31.3667C31.8667 30.6667 32.3067 30.3934 32.5334 29.98L34.9201 25.6534C34.9763 25.5523 35.0051 25.4384 35.0037 25.3227C35.0023 25.2071 34.9708 25.0939 34.9122 24.9942C34.8536 24.8945 34.77 24.8119 34.6696 24.7545C34.5693 24.697 34.4557 24.6668 34.3401 24.6667H24.4734L24.0267 23.7134C23.9732 23.5996 23.8883 23.5034 23.782 23.4361C23.6758 23.3688 23.5525 23.3332 23.4267 23.3334H22.3334C21.9667 23.3334 21.6667 23.6334 21.6667 24ZM32.3334 34C31.6001 34 31.0067 34.6 31.0067 35.3334C31.0067 36.0667 31.6001 36.6667 32.3334 36.6667C33.0667 36.6667 33.6667 36.0667 33.6667 35.3334C33.6667 34.6 33.0667 34 32.3334 34Z" fill="#59B17A"/>
<defs>
<filter id="filter0_d_0_299" x="0" y="0" width="58" height="58" filterUnits="userSpaceOnUse" color-interpolation-filters="sRGB">
<feFlood flood-opacity="0" result="BackgroundImageFix"/>
<feColorMatrix in="SourceAlpha" type="matrix" values="0 0 0 0 0 0 0 0 0 0 0 0 0 0 0 0 0 0 127 0" result="hardAlpha"/>
<feOffset dy="-1"/>
<feGaussianBlur stdDeviation="3.5"/>
<feComposite in2="hardAlpha" operator="out"/>
<feColorMatrix type="matrix" values="0 0 0 0 0.279167 0 0 0 0 0.279167 0 0 0 0 0.279167 0 0 0 0.05 0"/>
<feBlend mode="normal" in2="BackgroundImageFix" result="effect1_dropShadow_0_299"/>
<feBlend mode="normal" in="SourceGraphic" in2="effect1_dropShadow_0_299" result="shape"/>
</filter>
</defs>
</svg>
