<svg width="58" height="58" viewBox="0 0 58 58" fill="none" xmlns="http://www.w3.org/2000/svg">
<g filter="url(#filter0_d_0_303)">
<circle cx="29" cy="30" r="22" fill="white"/>
</g>
<g clip-path="url(#clip0_0_303)">
<path d="M31 28.4207V24.6667H31.6666C31.8434 24.6667 32.013 24.5965 32.138 24.4714C32.2631 24.3464 32.3333 24.1769 32.3333 24C32.3333 23.8232 32.2631 23.6537 32.138 23.5286C32.013 23.4036 31.8434 23.3334 31.6666 23.3334H26.3333C26.1565 23.3334 25.9869 23.4036 25.8619 23.5286C25.7369 23.6537 25.6666 23.8232 25.6666 24C25.6666 24.1769 25.7369 24.3464 25.8619 24.4714C25.9869 24.5965 26.1565 24.6667 26.3333 24.6667H27V28.4207L23.5153 33.5414C22.612 34.8694 23.5633 36.6667 25.1686 36.6667H32.8306C34.4373 36.6667 35.388 34.8694 34.484 33.5414L31 28.4214V28.4207Z" fill="#DCDDDF"/>
</g>
<defs>
<filter id="filter0_d_0_303" x="0" y="0" width="58" height="58" filterUnits="userSpaceOnUse" color-interpolation-filters="sRGB">
<feFlood flood-opacity="0" result="BackgroundImageFix"/>
<feColorMatrix in="SourceAlpha" type="matrix" values="0 0 0 0 0 0 0 0 0 0 0 0 0 0 0 0 0 0 127 0" result="hardAlpha"/>
<feOffset dy="-1"/>
<feGaussianBlur stdDeviation="3.5"/>
<feComposite in2="hardAlpha" operator="out"/>
<feColorMatrix type="matrix" values="0 0 0 0 0.279167 0 0 0 0 0.279167 0 0 0 0 0.279167 0 0 0 0.05 0"/>
<feBlend mode="normal" in2="BackgroundImageFix" result="effect1_dropShadow_0_303"/>
<feBlend mode="normal" in="SourceGraphic" in2="effect1_dropShadow_0_303" result="shape"/>
</filter>
<clipPath id="clip0_0_303">
<rect width="16" height="16" fill="white" transform="translate(21 22)"/>
</clipPath>
</defs>
</svg>
